<mxfile host="app.diagrams.net" agent="Mozilla/5.0 (Macintosh; Intel Mac OS X 10_15_7) AppleWebKit/605.1.15 (KHTML, like Gecko) Version/18.5 Safari/605.1.15" version="28.2.3">
  <diagram name="Page-1" id="13e1069c-82ec-6db2-03f1-153e76fe0fe0">
    <mxGraphModel dx="983" dy="676" grid="1" gridSize="10" guides="1" tooltips="1" connect="1" arrows="1" fold="1" page="1" pageScale="1" pageWidth="1100" pageHeight="850" background="none" math="0" shadow="0">
      <root>
        <mxCell id="0" />
        <mxCell id="1" parent="0" />
        <mxCell id="7baba1c4bc27f4b0-2" value="Frontend" style="shape=umlLifeline;perimeter=lifelinePerimeter;whiteSpace=wrap;html=1;container=1;collapsible=0;recursiveResize=0;outlineConnect=0;rounded=1;shadow=0;comic=0;labelBackgroundColor=none;strokeWidth=1;fontFamily=Verdana;fontSize=12;align=center;" parent="1" vertex="1">
          <mxGeometry x="240" y="80" width="100" height="580" as="geometry" />
        </mxCell>
        <mxCell id="7baba1c4bc27f4b0-10" value="" style="html=1;points=[];perimeter=orthogonalPerimeter;rounded=0;shadow=0;comic=0;labelBackgroundColor=none;strokeWidth=1;fontFamily=Verdana;fontSize=12;align=center;" parent="7baba1c4bc27f4b0-2" vertex="1">
          <mxGeometry x="45" y="100" width="10" height="230" as="geometry" />
        </mxCell>
        <mxCell id="SNNywtPr9IH-a4T9Uq5r-103" value="Created + Post" style="html=1;verticalAlign=bottom;endArrow=open;dashed=1;endSize=8;labelBackgroundColor=none;fontFamily=Verdana;fontSize=12;edgeStyle=elbowEdgeStyle;elbow=vertical;" edge="1" parent="7baba1c4bc27f4b0-2" source="7baba1c4bc27f4b0-3">
          <mxGeometry relative="1" as="geometry">
            <mxPoint x="60" y="260" as="targetPoint" />
            <Array as="points">
              <mxPoint x="135" y="260" />
              <mxPoint x="165" y="260" />
            </Array>
            <mxPoint x="190" y="260" as="sourcePoint" />
          </mxGeometry>
        </mxCell>
        <mxCell id="7baba1c4bc27f4b0-3" value="Backend" style="shape=umlLifeline;perimeter=lifelinePerimeter;whiteSpace=wrap;html=1;container=1;collapsible=0;recursiveResize=0;outlineConnect=0;rounded=1;shadow=0;comic=0;labelBackgroundColor=none;strokeWidth=1;fontFamily=Verdana;fontSize=12;align=center;" parent="1" vertex="1">
          <mxGeometry x="400" y="80" width="100" height="580" as="geometry" />
        </mxCell>
        <mxCell id="7baba1c4bc27f4b0-13" value="" style="html=1;points=[];perimeter=orthogonalPerimeter;rounded=0;shadow=0;comic=0;labelBackgroundColor=none;strokeWidth=1;fontFamily=Verdana;fontSize=12;align=center;" parent="7baba1c4bc27f4b0-3" vertex="1">
          <mxGeometry x="45" y="120" width="10" height="200" as="geometry" />
        </mxCell>
        <mxCell id="SNNywtPr9IH-a4T9Uq5r-100" value="POST/api/posts" style="endArrow=open;endSize=12;dashed=1;html=1;rounded=0;" edge="1" parent="7baba1c4bc27f4b0-3">
          <mxGeometry width="160" relative="1" as="geometry">
            <mxPoint x="-105" y="160" as="sourcePoint" />
            <mxPoint x="35" y="160" as="targetPoint" />
            <mxPoint as="offset" />
          </mxGeometry>
        </mxCell>
        <mxCell id="7baba1c4bc27f4b0-21" value="OK" style="html=1;verticalAlign=bottom;endArrow=open;dashed=1;endSize=8;labelBackgroundColor=none;fontFamily=Verdana;fontSize=12;edgeStyle=elbowEdgeStyle;elbow=vertical;" parent="7baba1c4bc27f4b0-3" edge="1">
          <mxGeometry relative="1" as="geometry">
            <mxPoint x="55" y="240" as="targetPoint" />
            <Array as="points">
              <mxPoint x="130" y="240" />
              <mxPoint x="160" y="240" />
            </Array>
            <mxPoint x="185" y="240" as="sourcePoint" />
          </mxGeometry>
        </mxCell>
        <mxCell id="7baba1c4bc27f4b0-4" value="Database" style="shape=umlLifeline;perimeter=lifelinePerimeter;whiteSpace=wrap;html=1;container=1;collapsible=0;recursiveResize=0;outlineConnect=0;rounded=1;shadow=0;comic=0;labelBackgroundColor=none;strokeWidth=1;fontFamily=Verdana;fontSize=12;align=center;" parent="1" vertex="1">
          <mxGeometry x="540" y="80" width="100" height="580" as="geometry" />
        </mxCell>
        <mxCell id="SNNywtPr9IH-a4T9Uq5r-101" value="INSERT new ImagePost" style="endArrow=open;endSize=12;dashed=1;html=1;rounded=0;" edge="1" parent="7baba1c4bc27f4b0-4">
          <mxGeometry width="160" relative="1" as="geometry">
            <mxPoint x="-90" y="189" as="sourcePoint" />
            <mxPoint x="50" y="189" as="targetPoint" />
            <mxPoint as="offset" />
          </mxGeometry>
        </mxCell>
        <mxCell id="7baba1c4bc27f4b0-8" value="User" style="shape=umlLifeline;perimeter=lifelinePerimeter;whiteSpace=wrap;html=1;container=1;collapsible=0;recursiveResize=0;outlineConnect=0;rounded=1;shadow=0;comic=0;labelBackgroundColor=none;strokeWidth=1;fontFamily=Verdana;fontSize=12;align=center;" parent="1" vertex="1">
          <mxGeometry x="100" y="80" width="100" height="580" as="geometry" />
        </mxCell>
        <mxCell id="7baba1c4bc27f4b0-9" value="" style="html=1;points=[];perimeter=orthogonalPerimeter;rounded=0;shadow=0;comic=0;labelBackgroundColor=none;strokeWidth=1;fontFamily=Verdana;fontSize=12;align=center;" parent="7baba1c4bc27f4b0-8" vertex="1">
          <mxGeometry x="45" y="100" width="10" height="230" as="geometry" />
        </mxCell>
        <mxCell id="SNNywtPr9IH-a4T9Uq5r-2" value="Create Post" style="endArrow=open;endSize=12;dashed=1;html=1;rounded=0;" edge="1" parent="7baba1c4bc27f4b0-8">
          <mxGeometry width="160" relative="1" as="geometry">
            <mxPoint x="45" y="140" as="sourcePoint" />
            <mxPoint x="185" y="140" as="targetPoint" />
            <mxPoint as="offset" />
          </mxGeometry>
        </mxCell>
        <mxCell id="SNNywtPr9IH-a4T9Uq5r-104" value="Neuer Post sichtbar" style="html=1;verticalAlign=bottom;endArrow=open;dashed=1;endSize=8;labelBackgroundColor=none;fontFamily=Verdana;fontSize=12;edgeStyle=elbowEdgeStyle;elbow=vertical;" edge="1" parent="7baba1c4bc27f4b0-8">
          <mxGeometry relative="1" as="geometry">
            <mxPoint x="55" y="280" as="targetPoint" />
            <Array as="points">
              <mxPoint x="130" y="280" />
              <mxPoint x="160" y="280" />
            </Array>
            <mxPoint x="185" y="280" as="sourcePoint" />
          </mxGeometry>
        </mxCell>
        <mxCell id="7baba1c4bc27f4b0-16" value="" style="html=1;points=[];perimeter=orthogonalPerimeter;rounded=0;shadow=0;comic=0;labelBackgroundColor=none;strokeWidth=1;fontFamily=Verdana;fontSize=12;align=center;" parent="1" vertex="1">
          <mxGeometry x="585" y="220" width="10" height="180" as="geometry" />
        </mxCell>
        <mxCell id="7baba1c4bc27f4b0-17" value="dispatch" style="html=1;verticalAlign=bottom;endArrow=block;labelBackgroundColor=none;fontFamily=Verdana;fontSize=12;edgeStyle=elbowEdgeStyle;elbow=vertical;" parent="1" source="7baba1c4bc27f4b0-13" target="7baba1c4bc27f4b0-16" edge="1">
          <mxGeometry relative="1" as="geometry">
            <mxPoint x="510" y="220" as="sourcePoint" />
            <Array as="points">
              <mxPoint x="460" y="220" />
            </Array>
          </mxGeometry>
        </mxCell>
        <mxCell id="7baba1c4bc27f4b0-11" value="dispatch" style="html=1;verticalAlign=bottom;endArrow=block;entryX=0;entryY=0;labelBackgroundColor=none;fontFamily=Verdana;fontSize=12;edgeStyle=elbowEdgeStyle;elbow=vertical;" parent="1" source="7baba1c4bc27f4b0-9" target="7baba1c4bc27f4b0-10" edge="1">
          <mxGeometry relative="1" as="geometry">
            <mxPoint x="220" y="190" as="sourcePoint" />
          </mxGeometry>
        </mxCell>
        <mxCell id="7baba1c4bc27f4b0-14" value="dispatch" style="html=1;verticalAlign=bottom;endArrow=block;entryX=0;entryY=0;labelBackgroundColor=none;fontFamily=Verdana;fontSize=12;edgeStyle=elbowEdgeStyle;elbow=vertical;" parent="1" source="7baba1c4bc27f4b0-10" target="7baba1c4bc27f4b0-13" edge="1">
          <mxGeometry relative="1" as="geometry">
            <mxPoint x="370" y="200" as="sourcePoint" />
          </mxGeometry>
        </mxCell>
        <mxCell id="7baba1c4bc27f4b0-35" value="dispatch" style="html=1;verticalAlign=bottom;endArrow=block;labelBackgroundColor=none;fontFamily=Verdana;fontSize=12;elbow=vertical;edgeStyle=orthogonalEdgeStyle;curved=1;entryX=1;entryY=0.286;entryPerimeter=0;exitX=1.038;exitY=0.345;exitPerimeter=0;" parent="1" source="7baba1c4bc27f4b0-16" edge="1">
          <mxGeometry relative="1" as="geometry">
            <mxPoint x="465" y="230" as="sourcePoint" />
            <mxPoint x="600" y="320.02" as="targetPoint" />
            <Array as="points">
              <mxPoint x="650" y="282" />
              <mxPoint x="650" y="320" />
            </Array>
          </mxGeometry>
        </mxCell>
        <mxCell id="SNNywtPr9IH-a4T9Uq5r-4" value="Frontend" style="shape=umlLifeline;perimeter=lifelinePerimeter;whiteSpace=wrap;html=1;container=1;collapsible=0;recursiveResize=0;outlineConnect=0;rounded=1;shadow=0;comic=0;labelBackgroundColor=none;strokeWidth=1;fontFamily=Verdana;fontSize=12;align=center;" vertex="1" parent="1">
          <mxGeometry x="210" y="900" width="100" height="580" as="geometry" />
        </mxCell>
        <mxCell id="SNNywtPr9IH-a4T9Uq5r-5" value="" style="html=1;points=[];perimeter=orthogonalPerimeter;rounded=0;shadow=0;comic=0;labelBackgroundColor=none;strokeWidth=1;fontFamily=Verdana;fontSize=12;align=center;" vertex="1" parent="SNNywtPr9IH-a4T9Uq5r-4">
          <mxGeometry x="45" y="100" width="10" height="230" as="geometry" />
        </mxCell>
        <mxCell id="SNNywtPr9IH-a4T9Uq5r-6" value="return: Posts" style="endArrow=open;endSize=12;dashed=1;html=1;rounded=0;" edge="1" parent="SNNywtPr9IH-a4T9Uq5r-4">
          <mxGeometry width="160" relative="1" as="geometry">
            <mxPoint x="45" y="180" as="sourcePoint" />
            <mxPoint x="-95" y="180" as="targetPoint" />
            <mxPoint as="offset" />
          </mxGeometry>
        </mxCell>
        <mxCell id="SNNywtPr9IH-a4T9Uq5r-7" value="Backend" style="shape=umlLifeline;perimeter=lifelinePerimeter;whiteSpace=wrap;html=1;container=1;collapsible=0;recursiveResize=0;outlineConnect=0;rounded=1;shadow=0;comic=0;labelBackgroundColor=none;strokeWidth=1;fontFamily=Verdana;fontSize=12;align=center;" vertex="1" parent="1">
          <mxGeometry x="370" y="900" width="100" height="580" as="geometry" />
        </mxCell>
        <mxCell id="SNNywtPr9IH-a4T9Uq5r-8" value="" style="html=1;points=[];perimeter=orthogonalPerimeter;rounded=0;shadow=0;comic=0;labelBackgroundColor=none;strokeWidth=1;fontFamily=Verdana;fontSize=12;align=center;" vertex="1" parent="SNNywtPr9IH-a4T9Uq5r-7">
          <mxGeometry x="45" y="120" width="10" height="200" as="geometry" />
        </mxCell>
        <mxCell id="SNNywtPr9IH-a4T9Uq5r-9" value="Database" style="shape=umlLifeline;perimeter=lifelinePerimeter;whiteSpace=wrap;html=1;container=1;collapsible=0;recursiveResize=0;outlineConnect=0;rounded=1;shadow=0;comic=0;labelBackgroundColor=none;strokeWidth=1;fontFamily=Verdana;fontSize=12;align=center;" vertex="1" parent="1">
          <mxGeometry x="510" y="900" width="100" height="580" as="geometry" />
        </mxCell>
        <mxCell id="SNNywtPr9IH-a4T9Uq5r-10" value=":Object" style="shape=umlLifeline;perimeter=lifelinePerimeter;whiteSpace=wrap;html=1;container=1;collapsible=0;recursiveResize=0;outlineConnect=0;rounded=1;shadow=0;comic=0;labelBackgroundColor=none;strokeWidth=1;fontFamily=Verdana;fontSize=12;align=center;" vertex="1" parent="1">
          <mxGeometry x="650" y="900" width="100" height="580" as="geometry" />
        </mxCell>
        <mxCell id="SNNywtPr9IH-a4T9Uq5r-11" value=":Object" style="shape=umlLifeline;perimeter=lifelinePerimeter;whiteSpace=wrap;html=1;container=1;collapsible=0;recursiveResize=0;outlineConnect=0;rounded=1;shadow=0;comic=0;labelBackgroundColor=none;strokeWidth=1;fontFamily=Verdana;fontSize=12;align=center;" vertex="1" parent="1">
          <mxGeometry x="790" y="900" width="100" height="580" as="geometry" />
        </mxCell>
        <mxCell id="SNNywtPr9IH-a4T9Uq5r-12" value=":Object" style="shape=umlLifeline;perimeter=lifelinePerimeter;whiteSpace=wrap;html=1;container=1;collapsible=0;recursiveResize=0;outlineConnect=0;rounded=1;shadow=0;comic=0;labelBackgroundColor=none;strokeWidth=1;fontFamily=Verdana;fontSize=12;align=center;" vertex="1" parent="1">
          <mxGeometry x="930" y="900" width="100" height="580" as="geometry" />
        </mxCell>
        <mxCell id="SNNywtPr9IH-a4T9Uq5r-13" value="User" style="shape=umlLifeline;perimeter=lifelinePerimeter;whiteSpace=wrap;html=1;container=1;collapsible=0;recursiveResize=0;outlineConnect=0;rounded=1;shadow=0;comic=0;labelBackgroundColor=none;strokeWidth=1;fontFamily=Verdana;fontSize=12;align=center;" vertex="1" parent="1">
          <mxGeometry x="70" y="900" width="100" height="580" as="geometry" />
        </mxCell>
        <mxCell id="SNNywtPr9IH-a4T9Uq5r-14" value="" style="html=1;points=[];perimeter=orthogonalPerimeter;rounded=0;shadow=0;comic=0;labelBackgroundColor=none;strokeWidth=1;fontFamily=Verdana;fontSize=12;align=center;" vertex="1" parent="SNNywtPr9IH-a4T9Uq5r-13">
          <mxGeometry x="45" y="100" width="10" height="440" as="geometry" />
        </mxCell>
        <mxCell id="SNNywtPr9IH-a4T9Uq5r-15" value="return: post blog" style="endArrow=open;endSize=12;dashed=1;html=1;rounded=0;" edge="1" parent="SNNywtPr9IH-a4T9Uq5r-13">
          <mxGeometry width="160" relative="1" as="geometry">
            <mxPoint x="45" y="140" as="sourcePoint" />
            <mxPoint x="185" y="140" as="targetPoint" />
            <mxPoint as="offset" />
          </mxGeometry>
        </mxCell>
        <mxCell id="SNNywtPr9IH-a4T9Uq5r-16" value="" style="html=1;points=[];perimeter=orthogonalPerimeter;rounded=0;shadow=0;comic=0;labelBackgroundColor=none;strokeWidth=1;fontFamily=Verdana;fontSize=12;align=center;" vertex="1" parent="1">
          <mxGeometry x="555" y="1040" width="10" height="180" as="geometry" />
        </mxCell>
        <mxCell id="SNNywtPr9IH-a4T9Uq5r-17" value="dispatch" style="html=1;verticalAlign=bottom;endArrow=block;labelBackgroundColor=none;fontFamily=Verdana;fontSize=12;edgeStyle=elbowEdgeStyle;elbow=vertical;" edge="1" parent="1" source="SNNywtPr9IH-a4T9Uq5r-8" target="SNNywtPr9IH-a4T9Uq5r-16">
          <mxGeometry relative="1" as="geometry">
            <mxPoint x="480" y="1040" as="sourcePoint" />
            <Array as="points">
              <mxPoint x="430" y="1040" />
            </Array>
          </mxGeometry>
        </mxCell>
        <mxCell id="SNNywtPr9IH-a4T9Uq5r-18" value="" style="html=1;points=[];perimeter=orthogonalPerimeter;rounded=0;shadow=0;comic=0;labelBackgroundColor=none;strokeWidth=1;fontFamily=Verdana;fontSize=12;align=center;" vertex="1" parent="1">
          <mxGeometry x="695" y="1050" width="10" height="40" as="geometry" />
        </mxCell>
        <mxCell id="SNNywtPr9IH-a4T9Uq5r-19" value="dispatch" style="html=1;verticalAlign=bottom;endArrow=block;entryX=0;entryY=0;labelBackgroundColor=none;fontFamily=Verdana;fontSize=12;edgeStyle=elbowEdgeStyle;elbow=vertical;" edge="1" parent="1" source="SNNywtPr9IH-a4T9Uq5r-16" target="SNNywtPr9IH-a4T9Uq5r-18">
          <mxGeometry relative="1" as="geometry">
            <mxPoint x="620" y="1050" as="sourcePoint" />
          </mxGeometry>
        </mxCell>
        <mxCell id="SNNywtPr9IH-a4T9Uq5r-20" value="return" style="html=1;verticalAlign=bottom;endArrow=open;dashed=1;endSize=8;labelBackgroundColor=none;fontFamily=Verdana;fontSize=12;edgeStyle=elbowEdgeStyle;elbow=vertical;" edge="1" parent="1" source="SNNywtPr9IH-a4T9Uq5r-18" target="SNNywtPr9IH-a4T9Uq5r-16">
          <mxGeometry relative="1" as="geometry">
            <mxPoint x="620" y="1126" as="targetPoint" />
            <Array as="points">
              <mxPoint x="640" y="1080" />
              <mxPoint x="670" y="1080" />
            </Array>
          </mxGeometry>
        </mxCell>
        <mxCell id="SNNywtPr9IH-a4T9Uq5r-21" value="" style="html=1;points=[];perimeter=orthogonalPerimeter;rounded=0;shadow=0;comic=0;labelBackgroundColor=none;strokeWidth=1;fontFamily=Verdana;fontSize=12;align=center;" vertex="1" parent="1">
          <mxGeometry x="555" y="1260" width="10" height="140" as="geometry" />
        </mxCell>
        <mxCell id="SNNywtPr9IH-a4T9Uq5r-22" value="dispatch" style="html=1;verticalAlign=bottom;endArrow=block;entryX=0;entryY=0;labelBackgroundColor=none;fontFamily=Verdana;fontSize=12;" edge="1" parent="1" source="SNNywtPr9IH-a4T9Uq5r-14" target="SNNywtPr9IH-a4T9Uq5r-21">
          <mxGeometry relative="1" as="geometry">
            <mxPoint x="480" y="1240" as="sourcePoint" />
          </mxGeometry>
        </mxCell>
        <mxCell id="SNNywtPr9IH-a4T9Uq5r-23" value="" style="html=1;points=[];perimeter=orthogonalPerimeter;rounded=0;shadow=0;comic=0;labelBackgroundColor=none;strokeColor=#000000;strokeWidth=1;fillColor=#FFFFFF;fontFamily=Verdana;fontSize=12;fontColor=#000000;align=center;" vertex="1" parent="1">
          <mxGeometry x="975" y="1280" width="10" height="30" as="geometry" />
        </mxCell>
        <mxCell id="SNNywtPr9IH-a4T9Uq5r-24" value="dispatch" style="html=1;verticalAlign=bottom;endArrow=block;entryX=0;entryY=0;labelBackgroundColor=none;fontFamily=Verdana;fontSize=12;" edge="1" parent="1" source="SNNywtPr9IH-a4T9Uq5r-21" target="SNNywtPr9IH-a4T9Uq5r-23">
          <mxGeometry relative="1" as="geometry">
            <mxPoint x="900" y="1160" as="sourcePoint" />
          </mxGeometry>
        </mxCell>
        <mxCell id="SNNywtPr9IH-a4T9Uq5r-25" value="return" style="html=1;verticalAlign=bottom;endArrow=open;dashed=1;endSize=8;exitX=0;exitY=0.95;labelBackgroundColor=none;fontFamily=Verdana;fontSize=12;" edge="1" parent="1" source="SNNywtPr9IH-a4T9Uq5r-23" target="SNNywtPr9IH-a4T9Uq5r-21">
          <mxGeometry relative="1" as="geometry">
            <mxPoint x="900" y="1236" as="targetPoint" />
          </mxGeometry>
        </mxCell>
        <mxCell id="SNNywtPr9IH-a4T9Uq5r-26" value="" style="html=1;points=[];perimeter=orthogonalPerimeter;rounded=0;shadow=0;comic=0;labelBackgroundColor=none;strokeWidth=1;fontFamily=Verdana;fontSize=12;align=center;" vertex="1" parent="1">
          <mxGeometry x="840" y="1370" width="10" height="60" as="geometry" />
        </mxCell>
        <mxCell id="SNNywtPr9IH-a4T9Uq5r-27" value="dispatch" style="html=1;verticalAlign=bottom;endArrow=block;entryX=0;entryY=0;labelBackgroundColor=none;fontFamily=Verdana;fontSize=12;edgeStyle=elbowEdgeStyle;elbow=vertical;" edge="1" parent="1" source="SNNywtPr9IH-a4T9Uq5r-34" target="SNNywtPr9IH-a4T9Uq5r-26">
          <mxGeometry relative="1" as="geometry">
            <mxPoint x="770" y="1370" as="sourcePoint" />
          </mxGeometry>
        </mxCell>
        <mxCell id="SNNywtPr9IH-a4T9Uq5r-28" value="return" style="html=1;verticalAlign=bottom;endArrow=open;dashed=1;endSize=8;labelBackgroundColor=none;fontFamily=Verdana;fontSize=12;edgeStyle=elbowEdgeStyle;elbow=vertical;" edge="1" parent="1" source="SNNywtPr9IH-a4T9Uq5r-26" target="SNNywtPr9IH-a4T9Uq5r-14">
          <mxGeometry relative="1" as="geometry">
            <mxPoint x="770" y="1446" as="targetPoint" />
            <Array as="points">
              <mxPoint x="540" y="1420" />
            </Array>
          </mxGeometry>
        </mxCell>
        <mxCell id="SNNywtPr9IH-a4T9Uq5r-29" value="dispatch" style="html=1;verticalAlign=bottom;endArrow=block;entryX=0;entryY=0;labelBackgroundColor=none;fontFamily=Verdana;fontSize=12;edgeStyle=elbowEdgeStyle;elbow=vertical;" edge="1" parent="1" source="SNNywtPr9IH-a4T9Uq5r-14" target="SNNywtPr9IH-a4T9Uq5r-5">
          <mxGeometry relative="1" as="geometry">
            <mxPoint x="190" y="1010" as="sourcePoint" />
          </mxGeometry>
        </mxCell>
        <mxCell id="SNNywtPr9IH-a4T9Uq5r-30" value="dispatch" style="html=1;verticalAlign=bottom;endArrow=block;entryX=0;entryY=0;labelBackgroundColor=none;fontFamily=Verdana;fontSize=12;edgeStyle=elbowEdgeStyle;elbow=vertical;" edge="1" parent="1" source="SNNywtPr9IH-a4T9Uq5r-5" target="SNNywtPr9IH-a4T9Uq5r-8">
          <mxGeometry relative="1" as="geometry">
            <mxPoint x="340" y="1020" as="sourcePoint" />
          </mxGeometry>
        </mxCell>
        <mxCell id="SNNywtPr9IH-a4T9Uq5r-31" value="" style="html=1;points=[];perimeter=orthogonalPerimeter;rounded=0;shadow=0;comic=0;labelBackgroundColor=none;strokeWidth=1;fontFamily=Verdana;fontSize=12;align=center;" vertex="1" parent="1">
          <mxGeometry x="560" y="1120" width="10" height="70" as="geometry" />
        </mxCell>
        <mxCell id="SNNywtPr9IH-a4T9Uq5r-32" value="dispatch" style="html=1;verticalAlign=bottom;endArrow=block;labelBackgroundColor=none;fontFamily=Verdana;fontSize=12;elbow=vertical;edgeStyle=orthogonalEdgeStyle;curved=1;entryX=1;entryY=0.286;entryPerimeter=0;exitX=1.038;exitY=0.345;exitPerimeter=0;" edge="1" parent="1" source="SNNywtPr9IH-a4T9Uq5r-16" target="SNNywtPr9IH-a4T9Uq5r-31">
          <mxGeometry relative="1" as="geometry">
            <mxPoint x="435" y="1050" as="sourcePoint" />
            <mxPoint x="565" y="1050" as="targetPoint" />
            <Array as="points">
              <mxPoint x="620" y="1102" />
              <mxPoint x="620" y="1140" />
            </Array>
          </mxGeometry>
        </mxCell>
        <mxCell id="SNNywtPr9IH-a4T9Uq5r-33" value="dispatch" style="html=1;verticalAlign=bottom;endArrow=block;labelBackgroundColor=none;fontFamily=Verdana;fontSize=12;elbow=vertical;edgeStyle=orthogonalEdgeStyle;curved=1;exitX=1.066;exitY=0.713;exitPerimeter=0;" edge="1" parent="1" source="SNNywtPr9IH-a4T9Uq5r-31">
          <mxGeometry relative="1" as="geometry">
            <mxPoint x="580.3333333333333" y="1170" as="sourcePoint" />
            <mxPoint x="565" y="1209" as="targetPoint" />
            <Array as="points">
              <mxPoint x="620" y="1170" />
              <mxPoint x="620" y="1209" />
            </Array>
          </mxGeometry>
        </mxCell>
        <mxCell id="SNNywtPr9IH-a4T9Uq5r-34" value="" style="html=1;points=[];perimeter=orthogonalPerimeter;rounded=0;shadow=0;comic=0;labelBackgroundColor=none;strokeWidth=1;fontFamily=Verdana;fontSize=12;align=center;" vertex="1" parent="1">
          <mxGeometry x="560" y="1340" width="10" height="40" as="geometry" />
        </mxCell>
        <mxCell id="SNNywtPr9IH-a4T9Uq5r-35" value="dispatch" style="html=1;verticalAlign=bottom;endArrow=block;labelBackgroundColor=none;fontFamily=Verdana;fontSize=12;elbow=vertical;edgeStyle=orthogonalEdgeStyle;curved=1;entryX=1;entryY=0.286;entryPerimeter=0;exitX=1.038;exitY=0.345;exitPerimeter=0;" edge="1" parent="1">
          <mxGeometry relative="1" as="geometry">
            <mxPoint x="565.3333333333335" y="1321" as="sourcePoint" />
            <mxPoint x="570.3333333333335" y="1359.3333333333335" as="targetPoint" />
            <Array as="points">
              <mxPoint x="620" y="1321" />
              <mxPoint x="620" y="1359" />
            </Array>
          </mxGeometry>
        </mxCell>
        <mxCell id="SNNywtPr9IH-a4T9Uq5r-106" value="" style="rounded=0;whiteSpace=wrap;html=1;" vertex="1" parent="1">
          <mxGeometry x="1140" y="130" width="1200" height="530" as="geometry" />
        </mxCell>
        <mxCell id="SNNywtPr9IH-a4T9Uq5r-107" value="" style="rounded=0;whiteSpace=wrap;html=1;" vertex="1" parent="1">
          <mxGeometry x="1140" y="160" width="1200" height="80" as="geometry" />
        </mxCell>
        <mxCell id="SNNywtPr9IH-a4T9Uq5r-108" value="" style="endArrow=none;html=1;rounded=0;exitX=0.5;exitY=0;exitDx=0;exitDy=0;" edge="1" parent="1" source="SNNywtPr9IH-a4T9Uq5r-116" target="SNNywtPr9IH-a4T9Uq5r-106">
          <mxGeometry width="50" height="50" relative="1" as="geometry">
            <mxPoint x="1780" y="510" as="sourcePoint" />
            <mxPoint x="1830" y="460" as="targetPoint" />
            <Array as="points" />
          </mxGeometry>
        </mxCell>
        <mxCell id="SNNywtPr9IH-a4T9Uq5r-112" style="edgeStyle=orthogonalEdgeStyle;rounded=0;orthogonalLoop=1;jettySize=auto;html=1;exitX=0.5;exitY=1;exitDx=0;exitDy=0;" edge="1" parent="1" source="SNNywtPr9IH-a4T9Uq5r-107" target="SNNywtPr9IH-a4T9Uq5r-107">
          <mxGeometry relative="1" as="geometry" />
        </mxCell>
        <mxCell id="SNNywtPr9IH-a4T9Uq5r-114" value="" style="rounded=0;whiteSpace=wrap;html=1;" vertex="1" parent="1">
          <mxGeometry x="1140" y="240" width="1200" height="90" as="geometry" />
        </mxCell>
        <mxCell id="SNNywtPr9IH-a4T9Uq5r-115" value="" style="rounded=0;whiteSpace=wrap;html=1;" vertex="1" parent="1">
          <mxGeometry x="1140" y="330" width="1200" height="100" as="geometry" />
        </mxCell>
        <mxCell id="SNNywtPr9IH-a4T9Uq5r-116" value="" style="rounded=0;whiteSpace=wrap;html=1;" vertex="1" parent="1">
          <mxGeometry x="1140" y="430" width="1200" height="100" as="geometry" />
        </mxCell>
        <mxCell id="SNNywtPr9IH-a4T9Uq5r-117" value="" style="rounded=0;whiteSpace=wrap;html=1;" vertex="1" parent="1">
          <mxGeometry x="1140" y="530" width="1200" height="100" as="geometry" />
        </mxCell>
        <mxCell id="SNNywtPr9IH-a4T9Uq5r-118" value="" style="rounded=0;whiteSpace=wrap;html=1;" vertex="1" parent="1">
          <mxGeometry x="1140" y="630" width="1200" height="30" as="geometry" />
        </mxCell>
        <mxCell id="SNNywtPr9IH-a4T9Uq5r-121" value="&lt;span style=&quot;font-size: 20px;&quot;&gt;User&lt;/span&gt;" style="text;html=1;align=center;verticalAlign=middle;whiteSpace=wrap;rounded=0;" vertex="1" parent="1">
          <mxGeometry x="1185" y="130" width="60" height="30" as="geometry" />
        </mxCell>
        <mxCell id="SNNywtPr9IH-a4T9Uq5r-122" value="&lt;span style=&quot;font-size: 20px;&quot;&gt;User ist eingeloggt&lt;/span&gt;" style="text;html=1;align=center;verticalAlign=middle;whiteSpace=wrap;rounded=0;" vertex="1" parent="1">
          <mxGeometry x="1790" y="130" width="280" height="30" as="geometry" />
        </mxCell>
        <mxCell id="SNNywtPr9IH-a4T9Uq5r-123" value="User erstellt einen neuen Image-Post, indem er ein Bild und optionaler Beschreibung hochlädt" style="text;html=1;align=center;verticalAlign=middle;whiteSpace=wrap;rounded=0;" vertex="1" parent="1">
          <mxGeometry x="1850" y="185" width="330" height="30" as="geometry" />
        </mxCell>
        <mxCell id="SNNywtPr9IH-a4T9Uq5r-125" value="" style="shape=link;html=1;rounded=0;exitX=0.5;exitY=1;exitDx=0;exitDy=0;" edge="1" parent="1">
          <mxGeometry width="100" relative="1" as="geometry">
            <mxPoint x="1740" y="660" as="sourcePoint" />
            <mxPoint x="1740" y="130" as="targetPoint" />
          </mxGeometry>
        </mxCell>
        <mxCell id="SNNywtPr9IH-a4T9Uq5r-127" value="Precondi&lt;span style=&quot;caret-color: rgba(0, 0, 0, 0); color: rgba(0, 0, 0, 0); font-family: monospace; font-size: 0px; text-align: start; white-space: nowrap;&quot;&gt;%3CmxGraphModel%3E%3Croot%3E%3CmxCell%20id%3D%220%22%2F%3E%3CmxCell%20id%3D%221%22%20parent%3D%220%22%2F%3E%3CmxCell%20id%3D%222%22%20value%3D%22Description%22%20style%3D%22text%3Bhtml%3D1%3Balign%3Dcenter%3BverticalAlign%3Dmiddle%3BwhiteSpace%3Dwrap%3Brounded%3D0%3B%22%20vertex%3D%221%22%20parent%3D%221%22%3E%3CmxGeometry%20x%3D%221170%22%20y%3D%22260%22%20width%3D%2290%22%20height%3D%2230%22%20as%3D%22geometry%22%2F%3E%3C%2FmxCell%3E%3C%2Froot%3E%3C%2FmxGraphModel%3E&lt;/span&gt;tions:&lt;span style=&quot;caret-color: rgba(0, 0, 0, 0); color: rgba(0, 0, 0, 0); font-family: monospace; font-size: 0px; text-align: start; white-space: nowrap;&quot;&gt;%3CmxGraphModel%3E%3Croot%3E%3CmxCell%20id%3D%220%22%2F%3E%3CmxCell%20id%3D%221%22%20parent%3D%220%22%2F%3E%3CmxCell%20id%3D%222%22%20value%3D%22Description%22%20style%3D%22text%3Bhtml%3D1%3Balign%3Dcenter%3BverticalAlign%3Dmiddle%3BwhiteSpace%3Dwrap%3Brounded%3D0%3B%22%20vertex%3D%221%22%20parent%3D%221%22%3E%3CmxGeometry%20x%3D%221170%22%20y%3D%22260%22%20width%3D%2290%22%20height%3D%2230%22%20as%3D%22geometry%22%2F%3E%3C%2FmxCell%3E%3C%2Froot%3E%3C%2FmxGraphModel%3E&lt;/span&gt;" style="text;html=1;align=center;verticalAlign=middle;whiteSpace=wrap;rounded=0;" vertex="1" parent="1">
          <mxGeometry x="1170" y="270" width="90" height="30" as="geometry" />
        </mxCell>
        <mxCell id="SNNywtPr9IH-a4T9Uq5r-128" value="&lt;ul&gt;&lt;li&gt;User wählt &quot;Create Post&quot;&lt;/li&gt;&lt;li&gt;Formular wird angezeigt&amp;nbsp;&lt;/li&gt;&lt;li&gt;User lädt sein Bild hoch und gibt einen Text ein&lt;/li&gt;&lt;li&gt;System validiert Eingaben&lt;/li&gt;&lt;li&gt;System speichert Post in der Datenbank&lt;/li&gt;&lt;li&gt;System zeigt Bestätigung und neuen Post im Feed&lt;/li&gt;&lt;/ul&gt;" style="text;html=1;align=center;verticalAlign=middle;whiteSpace=wrap;rounded=0;" vertex="1" parent="1">
          <mxGeometry x="1780" y="270" width="400" height="30" as="geometry" />
        </mxCell>
        <mxCell id="SNNywtPr9IH-a4T9Uq5r-129" value="Description:" style="text;html=1;align=center;verticalAlign=middle;whiteSpace=wrap;rounded=0;" vertex="1" parent="1">
          <mxGeometry x="1160" y="185" width="90" height="30" as="geometry" />
        </mxCell>
        <mxCell id="SNNywtPr9IH-a4T9Uq5r-130" value="Postconditions:" style="text;html=1;align=center;verticalAlign=middle;whiteSpace=wrap;rounded=0;" vertex="1" parent="1">
          <mxGeometry x="1170" y="365" width="90" height="30" as="geometry" />
        </mxCell>
        <mxCell id="SNNywtPr9IH-a4T9Uq5r-131" value="Normal Course:" style="text;html=1;align=center;verticalAlign=middle;whiteSpace=wrap;rounded=0;" vertex="1" parent="1">
          <mxGeometry x="1170" y="465" width="90" height="30" as="geometry" />
        </mxCell>
        <mxCell id="SNNywtPr9IH-a4T9Uq5r-132" value="Alternative Courses:" style="text;html=1;align=center;verticalAlign=middle;whiteSpace=wrap;rounded=0;" vertex="1" parent="1">
          <mxGeometry x="1170" y="565" width="120" height="30" as="geometry" />
        </mxCell>
        <mxCell id="SNNywtPr9IH-a4T9Uq5r-133" value="Exceptions:" style="text;html=1;align=center;verticalAlign=middle;whiteSpace=wrap;rounded=0;" vertex="1" parent="1">
          <mxGeometry x="1145" y="630" width="120" height="30" as="geometry" />
        </mxCell>
        <mxCell id="SNNywtPr9IH-a4T9Uq5r-134" value="" style="shape=stencil(fZbdcgIhDIWfZm8zQAg/17Z9j85U606tdqz9e/tmZ0c0uJ47xP0I5JwEBl59bp8/1kNwn6fj4W39M76ctgM/DCGM++36OJ50NPDjwKvN4bh+PR6+9i/z74/n6ctp9H74nlb4nbmSKZeJCu5vngmZ6jzzNAO7cX8FVKEsBuBKrgKg9oAE8gkCbLeUhEoEQKSUDZDLeWYRKIl8MEDRmHwfyBrBG6Amyu4+kDxxMoB3jhwgYu7TVAsVkFcWCs4CTBEoF4RctKeOxHIf8IXYpikHikAIf+MNUW94AGSSaoAoFIE3AlOyeWU+p2E5S9yfQZcQILVuQOwZdJNoS9Ls3wA5u2XZTIHECqeJ9kDpSaauRiNVcAY1QhdBzeLBli5WazpkSsBLV25uRaqWRyFawTQzRRIQYirJzq5atkBqLfouwqUxLBepthWb10vrWZY6UOAeyKCCtDV625mm9gmUC4Wc3VLJMMIE1BsA2FW9JraVlQB7n3c9oMKhCLEvIM1zBPZ25/umNQ1tVEC2G+fFCC8g398O2hNQuQlVu752DBfA+q0ptnqO5JFmeuIuo9DY7KjY71UxdJV4EntifPWorW++R/dC4t7V3DlIB5cHx2bc7eb3yvX//QNFp+bHDT/+Aw==);lineShape=1;strokeColor=default;" vertex="1" parent="1">
          <mxGeometry x="710.0123867879145" y="400.4657327300133" width="3.222441222148424" height="3.21740428714324" as="geometry" />
        </mxCell>
      </root>
    </mxGraphModel>
  </diagram>
</mxfile>
